<?xml version="1.0" encoding="UTF-8" standalone="no"?>
<!-- Generator: Adobe Illustrator 24.3.0, SVG Export Plug-In . SVG Version: 6.00 Build 0)  -->

<svg
   version="1.1"
   id="svg8"
   inkscape:version="1.4 (86a8ad7, 2024-10-11)"
   sodipodi:docname="skellyclicker-logo.svg"
   x="0px"
   y="0px"
   viewBox="0 0 461.4 584.5"
   style="enable-background:new 0 0 461.4 584.5;"
   xml:space="preserve"
   xmlns:inkscape="http://www.inkscape.org/namespaces/inkscape"
   xmlns:sodipodi="http://sodipodi.sourceforge.net/DTD/sodipodi-0.dtd"
   xmlns="http://www.w3.org/2000/svg"
   xmlns:svg="http://www.w3.org/2000/svg"><defs
   id="defs1" />
<style
   type="text/css"
   id="style1">
	.st0{display:none;}
	.st1{display:none;fill:#A4D6D9;}
	.st2{fill:#A4D6D9;}
	.st3{opacity:0.15;fill:#365D5F;enable-background:new    ;}
	.st4{fill:#D95157;}
</style>
    <sodipodi:namedview
   bordercolor="#666666"
   borderopacity="1.0"
   id="base"
   inkscape:current-layer="layer1"
   inkscape:cx="159.27698"
   inkscape:cy="257.52977"
   inkscape:document-rotation="0"
   inkscape:document-units="mm"
   inkscape:pageopacity="0.0"
   inkscape:pageshadow="2"
   inkscape:window-height="1009"
   inkscape:window-maximized="1"
   inkscape:window-width="1920"
   inkscape:window-x="1912"
   inkscape:window-y="-8"
   inkscape:zoom="1.302762"
   pagecolor="#ffffff"
   showgrid="false"
   inkscape:showpageshadow="0"
   inkscape:pagecheckerboard="0"
   inkscape:deskcolor="#505050">
	</sodipodi:namedview>
    <g
   id="layer2"
   transform="translate(6.5984788,6.6389071)"
   inkscape:groupmode="layer"
   inkscape:label="Layer 2"
   class="st0">
	<ellipse
   id="path962"
   cx="171.3"
   cy="282.5"
   rx="146.1"
   ry="160.4" />
</g>
    <g
   id="layer1"
   transform="matrix(1.127362,0,0,1.1111261,10.796255,-14.945707)"
   inkscape:groupmode="layer"
   inkscape:label="Layer 1">

		

        
        
        <g
   id="path959"
   style="display:inline"
   transform="matrix(0.65657654,0,0,0.65657654,10.175944,10.622543)">
		<path
   id="path966"
   sodipodi:nodetypes="csssssscssssssssscscccccsssssssscccssccccsscssssssssccssccscssscccssssc"
   d="M 241.9,40.7 C 220,42.1 200.2,45.4 181,50.8 173.4,53 158.8,58 151.1,61 143.4,64 133.3,69.2 125.9,73.7 99.8,89.4 77,112.2 61.6,138.2 49.8,158 40.8,183 36.6,206.7 c -2.4,13.7 -3.3,22.4 -3.4,36.3 -0.1,6.3 -0.4,14.6 -0.4,15 -0.6,7.4 0.2,14.6 3,28.4 1.4,7.1 3.5,20.6 4.1,26 0.7,6.6 0.7,9.9 0.3,26.8 -0.3,13.3 -0.1,17.3 0.7,22.5 0.5,3.3 0.8,5.6 1.8,9.4 1.8,6.7 3.4,11.6 8.1,18.3 4.8,6.9 8.8,11.2 16.7,16 1.4,0.8 4.7,2.8 7.1,4.3 3.5,2.1 8,4.6 12,6.5 0.8,0.4 1.5,0.8 2.2,1.2 -2,11.1 -3,23.1 -2.6,36.7 0.1,4.3 0,7.5 1.5,12.7 1.6,5.2 6.1,10.6 8.3,12.6 4.5,4 10.3,6.6 17,6.6 3.9,2.5 8.1,3.2 12.5,3.2 l 0.4,0.4 c -2.1,0.5 -4,1.1 -5.7,2 -2.1,1.1 -4.2,2.3 -6.6,4.6 -2.4,2.3 -6.7,5.9 -6.7,15.1 0,5.7 0.5,4.4 0.7,5.1 0.2,0.7 0.3,1.3 0.5,1.9 0.4,1.3 0.8,2.7 1.3,4.2 1,3.1 2.2,6.8 3.3,10 1.2,3.3 2.9,7.2 4.6,11.1 1.5,3.5 3.6,8.1 4.3,9.8 l 0.2,0.6 0.1,3.4 c 0.6,14.5 3.9,27.6 10.6,38.9 3.7,6.2 9.1,12.1 14.9,16.1 4.9,3.3 11.1,6.3 16.2,7.4 l 11.9,1.2 10.5,-1.5 c 1,-0.2 1.8,-0.2 2.8,-0.4 8.8,-1.4 14.8,-3 23.1,-6.1 19.6,-7.3 39.1,-17.2 58.5,-29.6 5.5,-3.5 14.2,-9.3 18.3,-12.4 -1.1,0.8 4.5,-3.1 8.9,-6.1 4.8,-3.2 11.7,-8.2 16.2,-11.5 4.1,-3 9.6,-7.1 12.1,-8.9 6.5,-4.8 10.2,-7.7 19.6,-15.8 4.1,-3.6 10.1,-8.3 11.2,-9.2 8.6,-6.4 16.4,-14.1 22.3,-22.6 3.9,-5.7 6.3,-10 8.3,-14.9 4.3,-10.3 5.4,-21.7 3.4,-32.7 -0.3,-1.4 -0.5,-2.8 -0.8,-4 -0.3,-1.2 0.6,0.1 -1.3,-4.8 1.5,3.8 0.5,1.5 0.3,0.8 -0.2,-0.7 -0.4,-1.7 -0.6,-2.7 -0.5,-2.5 -1.2,-6 -1.7,-8.3 v 0 c -0.3,-1.3 -0.2,-0.1 -0.3,-3.1 -0.1,-2.7 -0.1,-8.9 -0.1,-18.3 1.9,-0.8 3.7,-1.7 5.9,-2.6 5.7,-2.5 11.7,-5.5 17.2,-9 24.8,-15.8 44.8,-38.7 60.2,-67.9 13.4,-25.5 21.4,-53.7 23.8,-83.6 v 0 c 0.7,-8.9 0.8,-22.8 0,-31.6 -1.2,-13.2 -3.6,-26.3 -7.1,-37.6 -6.6,-21 -13,-34.7 -23.2,-48.5 C 443.8,102.2 414.9,80.2 381.9,65.6 349.9,51.4 315.4,43.2 278,40.7 c -9.2,-0.6 -26.7,-0.6 -36.1,0 z"
   style="fill:#1a1a1a" />
            <path
   id="path968"
   class="st2"
   d="m 167.8,601.5 c -3.5,-0.8 -5.5,-1.7 -9.6,-4.6 -4.1,-2.8 -6.6,-5.5 -9.4,-10.2 -5,-8.3 -7.4,-17.6 -7.9,-30.1 l -0.3,-6.8 -1.6,-3.7 c -0.9,-2 -2.9,-6.6 -4.4,-10.2 -1.6,-3.6 -3.4,-8 -4.1,-9.8 -2,-5.7 -4.7,-14.2 -4.7,-14.9 0,-1.9 5.3,-4.6 7.4,-3.7 1.4,0.6 1.9,1.6 1.5,3 -0.7,2.3 -0.2,8.4 0.9,11.2 0.6,1.5 2.6,4.6 3.1,4.6 0.5,0 0.4,-2.7 -0.1,-4.8 -0.8,-3.5 -1.4,-9.2 -1.1,-10.4 0.6,-2 4.2,-3.3 6.4,-2.4 1.1,0.5 1.1,0.8 0.3,2.7 -1,2.1 -1,10.7 0,13.1 0.7,1.7 1.6,2.5 2,1.8 0.1,-0.2 0.3,-2.6 0.4,-5.4 0.3,-8.9 1.4,-11.2 5.6,-11.2 1.9,0 3.6,1.2 4.4,3.3 0.5,1.2 0.5,1.8 0.2,3.6 -0.5,2.8 -0.3,5.7 0.8,8.3 1.6,4 2.4,2.2 2.5,-5.6 0.1,-4.3 0.6,-6.3 1.8,-7.3 1,-0.8 3.5,-1 4.8,-0.3 2.1,1 2.2,1.4 2.1,5.9 -0.1,2.3 0.1,4.9 0.3,6 0.5,2.1 1.8,5 2.3,5 0.5,0 0.7,-2.5 0.8,-8.4 l 0.1,-5.3 1.3,-1.1 c 2.2,-1.7 4.1,-2.6 6.7,-2.8 l 2.4,-0.2 0.8,1.4 c 0.6,1.1 0.9,2.3 1,5.1 0.2,4.2 1,7.1 2.2,8.1 1.4,1.2 1.6,0.2 1.3,-7.4 l -0.2,-7 1.1,-1 c 0.6,-0.5 1.8,-1.2 2.7,-1.4 1.4,-0.4 1.8,-0.3 3.1,0.3 1.4,0.7 1.5,0.9 1.7,2.7 0.3,2.6 1.6,6.4 2.9,8.1 1.9,2.6 2,1.8 1,-6.5 -0.7,-5.6 -0.7,-5.1 0.6,-6.6 1.9,-2 7.1,-3.7 8.8,-2.9 0.5,0.3 1.1,1.5 1.8,3.6 2.5,7.8 3.1,9.5 3.6,9.6 0.7,0.2 1.3,-1.2 1.5,-3.7 0.2,-1.9 0,-2.8 -0.8,-5.2 -1.2,-3.5 -1.2,-4.1 -0.1,-6 0.8,-1.3 1.2,-1.6 2.5,-1.8 0.9,-0.1 3.4,-1 5.7,-2.1 2.3,-1 4.9,-2 5.9,-2.1 1.7,-0.2 1.8,-0.2 2.6,1 0.4,0.7 1.4,2.9 2.1,4.9 2.4,6.7 3,7.1 3.5,2.8 0.4,-3.2 -0.3,-6.4 -2.1,-9.1 -1.4,-2.1 -1.4,-2.4 -0.1,-3.6 2,-1.8 4.5,-2.6 8.5,-2.6 3.5,0 4,-0.1 3.1,-0.9 -0.3,-0.3 -0.3,-0.7 0.2,-1.3 0.8,-1.1 3.2,-3.1 4.3,-3.3 0.4,-0.1 1.1,-0.3 1.6,-0.4 0.7,-0.2 1.1,0.2 2.7,2.5 1.1,1.5 2.3,3.9 2.9,5.6 0.5,1.6 1.2,3 1.4,3.1 1,0.3 1.2,-4.4 0.3,-7.1 -0.5,-1.6 -1.1,-2.6 -3.9,-6.4 -0.6,-0.8 -0.6,-0.9 0.1,-1.4 1.5,-1.1 3.5,-1.9 5.9,-2.3 2.4,-0.4 2.6,-0.5 5,-2.9 2.5,-2.5 3.3,-2.9 6.6,-3.7 1.6,-0.4 1.9,-0.3 3.3,0.5 0.8,0.5 2.5,1.7 3.7,2.7 1.2,1 2.3,1.9 2.5,1.9 0.7,0 9.7,-5.9 10.1,-6.7 0.3,-0.5 2,-2.4 4,-4.3 3.8,-3.7 5.2,-5.7 6.2,-8.3 1.5,-4.2 1.7,-20.1 0.5,-27.9 -1.1,-6.4 -2.2,-18.6 -2.1,-21.1 0.1,-1.8 0.5,-3.1 1.3,-4.6 1.9,-3.5 4.1,-4.5 10.3,-4.5 h 3.8 l 4.4,2.2 c 5.9,3 7.9,3.3 12.2,2 4,-1.2 6.7,-3.1 9.8,-6.8 2.9,-3.5 6.8,-10.1 8.3,-13.8 2.2,-5.7 5,-8.7 7.9,-8.7 3.3,0 4.7,1.7 6.1,7.3 0.8,3.1 0.8,4 0.9,26.5 0.1,22.1 0.1,23.4 0.9,26.9 0.4,2 1.2,5.6 1.7,7.9 0.5,2.3 1,4.6 1.2,5.1 0.2,0.5 0.7,2.9 1.1,5.4 1.4,7.6 0.6,15.2 -2.3,22.2 -1.7,4.1 -2.9,6.1 -6.5,11.5 -3.9,5.8 -11.3,13.2 -18,18.1 -2.3,1.7 -7.8,6.2 -12.3,10 -9.4,8 -12.2,10.3 -18.5,15 -2.5,1.9 -8,5.9 -12.1,8.9 -4.1,3 -11.1,8 -15.6,11 -4.4,3 -8.7,5.9 -9.4,6.5 -2.8,2.1 -12.3,8.5 -17.3,11.7 -18.4,11.8 -36.7,21.1 -54.9,27.8 -7.8,2.9 -11.2,3.8 -19.6,5.1 -8.5,1.5 -14.9,1.9 -18.3,1.1 z M 363.2,433.2 c 0,-0.1 -0.1,-0.2 -0.2,-0.2 -0.1,0 -0.2,0.1 -0.2,0.2 0,0.1 0.1,0.2 0.2,0.2 0.1,0 0.2,-0.1 0.2,-0.2 z m -203.9,44.1 c -1.5,-0.4 -3,-0.8 -3.1,-1 -0.5,-0.6 -1.2,-6.1 -1.5,-12.7 -0.3,-6.2 -0.8,-9 -1.5,-8.3 -0.4,0.4 -1.8,6.1 -2.3,9.9 -0.3,1.7 -0.3,4.1 -0.2,5.9 l 0.3,3 -1.7,0.5 c -1,0.3 -3.2,0.5 -5.7,0.5 -3.8,0 -4.2,-0.1 -6.4,-1.1 -2.1,-1.1 -2.3,-1.2 -2.8,-3 -0.9,-3.3 -1.2,-7.3 -1.3,-13.7 0,-3.5 -0.2,-6.4 -0.4,-6.4 -0.5,0 -1.4,2.3 -2.1,5.3 -0.5,2.4 -0.8,9.1 -0.5,12.8 0.1,1.2 0,1.3 -1.5,1.6 -2.4,0.5 -5.5,-0.3 -7.4,-1.8 -1.4,-1.2 -1.6,-1.5 -2,-4 -0.8,-4.8 -0.8,-5.7 -0.9,-10.6 0,-2.7 -0.2,-4.8 -0.3,-4.8 -0.6,0 -1.9,3.6 -2.4,6.3 -0.3,1.6 -0.4,4.4 -0.2,6.9 l 0.2,4.1 -1,0.2 c -2,0.5 -4.4,-0.2 -6.2,-1.8 -2.9,-2.5 -3.2,-3.8 -3.5,-11.8 -0.6,-16.6 0.8,-31.4 3.8,-41.6 0.6,-2.1 1.4,-5.1 1.8,-6.6 0.9,-3.8 1.2,-11.8 0.6,-15 -0.4,-2.4 -2.5,-7.7 -3.1,-8.1 -0.2,-0.1 -0.3,2.4 -0.3,5.4 0,6.3 -0.5,8.5 -3,12.5 -1.9,3 -2.5,2.9 -10,-0.7 -3.3,-1.6 -8,-4.2 -10.4,-5.6 -2.4,-1.5 -5.7,-3.5 -7.2,-4.4 -3.2,-1.9 -8.4,-7 -10.9,-10.6 -1.8,-2.5 -4.3,-8.5 -5.4,-12.6 -0.3,-1.2 -0.9,-4.5 -1.4,-7.3 -0.8,-4.9 -0.8,-5.9 -0.5,-19.2 0.4,-17 0.3,-21.8 -0.4,-29.2 -0.7,-6.8 -2.8,-19.9 -4.4,-27.8 -2.7,-13.5 -3.2,-17.2 -2.7,-23.1 0.2,-2.4 0.4,-9.8 0.5,-16.4 0.1,-13.4 0.8,-20 3.1,-33.2 3.8,-21.2 12.4,-44.9 22.7,-62.2 13.7,-23.1 34.5,-44 57.8,-58.1 6,-3.6 16.9,-9.1 22.4,-11.3 6.3,-2.5 22.2,-7.9 28.1,-9.6 17.9,-5.1 36.2,-8.1 57,-9.5 7.2,-0.5 26.7,-0.5 33.9,0 35.5,2.4 67.6,10 97.5,23.3 30.2,13.4 56.9,33.9 73.6,56.5 9.1,12.3 14.1,22.8 20.4,42.9 3,9.5 5.3,21.7 6.3,33.6 0.5,5.7 0.5,22.3 0,28.5 -2.2,27.5 -9.5,53.2 -21.7,76.4 -14.1,26.8 -31.9,47 -53.6,60.8 -8.9,5.6 -21.4,11 -25.6,11 -2.2,0 -2.6,-0.5 -2.1,-2.9 0.2,-1.1 0.4,-4.1 0.4,-6.7 0,-5.6 -0.6,-7.7 -3.1,-10.5 -2.9,-3.1 -6.6,-4.2 -9.6,-2.8 -1,0.5 -4.3,3.2 -8.2,6.9 -6.3,5.9 -10.9,9.4 -14.3,10.7 -7,2.8 -22.9,5.1 -41.9,6 -7.5,0.4 -15.7,1 -16.7,1.3 -0.3,0.1 -2.4,0.3 -4.6,0.6 -4.5,0.5 -12.1,2.5 -15.4,4.1 -2.6,1.2 -5.4,3.2 -5.4,3.7 0,0.7 1.8,0.4 4.3,-0.7 2.6,-1.1 7.5,-2.5 7.8,-2.2 0.1,0.1 -0.5,1.6 -1.3,3.3 -2.1,4.3 -2.5,6.4 -2.2,11.5 0.2,3.3 0.5,5 1.4,8.1 2.6,8.3 1,15.2 -4.1,17.5 -1.4,0.6 -1.5,0.8 -2.6,3.9 -1.2,3.2 -4.9,6.3 -8.1,6.7 -1,0.1 -1.1,0 -1.8,-1.9 -0.4,-1.1 -1.3,-3.2 -2.1,-4.6 -1.4,-2.6 -4.2,-5.7 -4.7,-5.2 -0.2,0.1 0.7,3 1.9,6.4 1.2,3.4 2.2,6.6 2.2,7.1 0,1.3 -1.9,3.7 -4,5 -1,0.6 -3,1.4 -4.5,1.8 -2.4,0.6 -3.1,0.9 -5.2,2.8 -2.8,2.5 -4.4,3.2 -6.7,3.2 h -1.7 l -0.9,-3.2 c -0.9,-3.3 -4.1,-10.1 -4.7,-10.1 -0.6,0 -0.4,1 1.2,7 1.9,7.2 1.9,7.7 0.1,9.7 -2.9,3.1 -9.6,4.8 -14,3.6 l -1.4,-0.4 -0.1,-2.9 c -0.1,-3.3 -1.5,-9.1 -3,-12.2 -1.1,-2.4 -2.5,-4.4 -3,-4.4 -0.5,0 0,4.2 1.1,9.6 0.5,2.5 1.1,5.7 1.2,7 l 0.3,2.4 -2,1.7 c -4.6,4 -9.7,5 -16,3.4 l -2,-0.5 -0.2,-2.9 c -0.5,-5.7 -3.5,-16 -4.7,-16 -1,0 -1,4.4 -0.1,10.2 0.5,3 0.9,6.2 0.9,7 0,1.4 -0.1,1.5 -1.9,2.4 -2.8,1.5 -8.8,1.7 -13,0.7 z m 3.1,-84.6 c 0.5,-0.5 1.5,-1.9 2.2,-3.2 1.2,-2.4 1.3,-2.5 1.3,-7.6 0,-4.7 -0.1,-5.6 -1.2,-9.6 -2.7,-9.9 -10.3,-23.8 -17.7,-32.3 -2.9,-3.3 -4,-4.2 -6.5,-5.5 -2.2,-1.1 -3.4,-1 -5.1,0.3 -1.7,1.3 -1.7,1.4 -2.3,6.6 -0.5,4.9 -1.2,8.6 -2.9,16.1 -2.1,9.6 -3.4,19.4 -3.1,24.6 0.3,4.7 0.7,6.3 1.9,7.6 1.5,1.6 4.2,0.6 5.6,-2.1 2,-3.8 2.6,-9.2 3,-25.3 0.2,-10.6 0.3,-12 0.8,-11.6 0.9,0.7 5.7,10.3 6.6,13.3 2.4,7.5 6.4,18.6 7.8,21.4 1.2,2.4 2.2,3.7 4.2,5.6 2.8,2.8 3.8,3.1 5.4,1.7 z M 244,348.4 c 6.5,-0.8 13.2,-2.6 18.1,-5 2.5,-1.2 9.7,-7 12.1,-9.6 4.5,-5 6.4,-8.4 9,-16.2 2.3,-6.9 2.9,-10.6 2.9,-18.6 0,-10.1 -1.3,-16 -5.5,-24 -5.6,-10.7 -12.6,-18.8 -21.1,-24.3 -5.8,-3.8 -15.2,-8.1 -21.6,-9.9 -4.6,-1.3 -13,-2.8 -17.2,-3 -9.5,-0.6 -19.6,2.3 -26.1,7.5 -3.3,2.6 -7.3,8.9 -9.3,14.7 -1.3,3.7 -1.5,4.5 -1.6,8.7 -0.2,7.6 0.6,20 1.9,28.4 0.6,4.2 1.4,9.6 1.8,12 0.7,5.4 1.3,7.8 3.1,13.2 1.7,5.2 3,7.5 5.8,11 4.6,5.7 10.4,9.4 19.9,12.6 8,2.7 11.6,3.3 19.1,3.1 2.9,-0.1 6.9,-0.4 8.7,-0.6 z M 103.6,335.9 c 9.2,-3.4 14.1,-7.6 18.2,-15.3 4.9,-9.4 7.9,-31 6.1,-43.5 -1.5,-10.3 -5.3,-19.9 -10.5,-26.5 -2.4,-3 -9.3,-9 -12,-10.3 -2.4,-1.2 -7.1,-2.4 -10.5,-2.7 -2.5,-0.3 -8,0.7 -11.6,2 -1.2,0.4 -3.3,1.6 -4.6,2.5 -3.5,2.6 -5.7,5.4 -7.7,9.9 l -1.7,3.9 0.1,29.9 c 0.1,21.8 0.2,30.4 0.6,31.9 0.7,3 4.9,10.9 7,13.1 1.2,1.2 3,2.5 5.6,3.9 4.3,2.3 7.1,2.9 12.7,3 3.3,0.1 3.7,0 8.3,-1.8 z M 64.4,320.2 c -0.1,-0.1 -0.3,0 -0.3,0.2 0,0.3 0.1,0.4 0.3,0.2 0.2,-0.1 0.2,-0.3 0,-0.4 z m -0.6,-14.4 c 0,-0.1 -0.1,-0.2 -0.2,-0.2 -0.1,0 -0.2,0.1 -0.2,0.2 0,0.1 0.1,0.2 0.2,0.2 0.1,0 0.2,-0.1 0.2,-0.2 z" />
            <path
   id="path988"
   class="st3"
   d="m 167.8,601.5 c -3.5,-0.8 -5.5,-1.7 -9.6,-4.6 -4.1,-2.8 -6.6,-5.5 -9.4,-10.2 -5,-8.3 -7.4,-17.6 -7.9,-30.1 l -0.3,-6.8 -1.6,-3.7 c -0.9,-2 -2.9,-6.6 -4.4,-10.2 -1.6,-3.6 -3.4,-8 -4.1,-9.8 -2,-5.7 -4.7,-14.2 -4.7,-14.9 0,-1.9 5.3,-4.6 7.4,-3.7 1.4,0.6 1.9,1.6 1.5,3 -0.7,2.3 -0.2,8.4 0.9,11.2 0.6,1.5 2.6,4.6 3.1,4.6 0.5,0 0.4,-2.7 -0.1,-4.8 -0.8,-3.5 -1.4,-9.2 -1.1,-10.4 0.6,-2 4.2,-3.3 6.4,-2.4 1.1,0.5 1.1,0.8 0.3,2.7 -1,2.1 -1,10.7 0,13.1 0.7,1.7 1.6,2.5 2,1.8 0.1,-0.2 0.3,-2.6 0.4,-5.4 0.3,-8.9 1.4,-11.2 5.6,-11.2 1.9,0 3.6,1.2 4.4,3.3 0.5,1.2 0.5,1.8 0.2,3.6 -0.5,2.8 -0.3,5.7 0.8,8.3 1.6,4 2.4,2.2 2.5,-5.6 0.1,-4.3 0.6,-6.3 1.8,-7.3 1,-0.8 3.5,-1 4.8,-0.3 2.1,1 2.2,1.4 2.1,5.9 -0.1,2.3 0.1,4.9 0.3,6 0.5,2.1 1.8,5 2.3,5 0.5,0 0.7,-2.5 0.8,-8.4 l 0.1,-5.3 1.3,-1.1 c 2.2,-1.7 4.1,-2.6 6.7,-2.8 l 2.4,-0.2 0.8,1.4 c 0.6,1.1 0.9,2.3 1,5.1 0.2,4.2 1,7.1 2.2,8.1 1.4,1.2 1.6,0.2 1.3,-7.4 l -0.2,-7 1.1,-1 c 0.6,-0.5 1.8,-1.2 2.7,-1.4 1.4,-0.4 1.8,-0.3 3.1,0.3 1.4,0.7 1.5,0.9 1.7,2.7 0.3,2.6 1.6,6.4 2.9,8.1 1.9,2.6 2,1.8 1,-6.5 -0.7,-5.6 -0.7,-5.1 0.6,-6.6 1.9,-2 7.1,-3.7 8.8,-2.9 0.5,0.3 1.1,1.5 1.8,3.6 2.5,7.8 3.1,9.5 3.6,9.6 0.7,0.2 1.3,-1.2 1.5,-3.7 0.2,-1.9 0,-2.8 -0.8,-5.2 -1.2,-3.5 -1.2,-4.1 -0.1,-6 0.8,-1.3 1.2,-1.6 2.5,-1.8 0.9,-0.1 3.4,-1 5.7,-2.1 2.3,-1 4.9,-2 5.9,-2.1 1.7,-0.2 1.8,-0.2 2.6,1 0.4,0.7 1.4,2.9 2.1,4.9 2.4,6.7 3,7.1 3.5,2.8 0.4,-3.2 -0.3,-6.4 -2.1,-9.1 -1.4,-2.1 -1.4,-2.4 -0.1,-3.6 2,-1.8 4.5,-2.6 8.5,-2.6 3.5,0 4,-0.1 3.1,-0.9 -0.3,-0.3 -0.3,-0.7 0.2,-1.3 0.8,-1.1 3.2,-3.1 4.3,-3.3 0.4,-0.1 1.1,-0.3 1.6,-0.4 0.7,-0.2 1.1,0.2 2.7,2.5 1.1,1.5 2.3,3.9 2.9,5.6 0.5,1.6 1.2,3 1.4,3.1 1,0.3 1.2,-4.4 0.3,-7.1 -0.5,-1.6 -1.1,-2.6 -3.9,-6.4 -0.6,-0.8 -0.6,-0.9 0.1,-1.4 1.5,-1.1 3.5,-1.9 5.9,-2.3 2.4,-0.4 2.6,-0.5 5,-2.9 2.5,-2.5 3.3,-2.9 6.6,-3.7 1.6,-0.4 1.9,-0.3 3.3,0.5 0.8,0.5 2.5,1.7 3.7,2.7 1.2,1 2.3,1.9 2.5,1.9 0.7,0 9.7,-5.9 10.1,-6.7 0.3,-0.5 2,-2.4 4,-4.3 3.8,-3.7 5.2,-5.7 6.2,-8.3 1.5,-4.2 1.7,-20.1 0.5,-27.9 -1.1,-6.4 -2.2,-18.6 -2.1,-21.1 0.1,-1.8 0.5,-3.1 1.3,-4.6 1.9,-3.5 4.1,-4.5 10.3,-4.5 h 3.8 l 4.4,2.2 c 5.9,3 7.9,3.3 12.2,2 4,-1.2 6.7,-3.1 9.8,-6.8 2.9,-3.5 6.8,-10.1 8.3,-13.8 2.2,-5.7 5,-8.7 7.9,-8.7 3.3,0 4.7,1.7 6.1,7.3 0.8,3.1 0.8,4 0.9,26.5 0.1,22.1 0.1,23.4 0.9,26.9 0.4,2 1.2,5.6 1.7,7.9 0.5,2.3 1,4.6 1.2,5.1 0.2,0.5 0.7,2.9 1.1,5.4 1.4,7.6 0.6,15.2 -2.3,22.2 -1.7,4.1 -2.9,6.1 -6.5,11.5 -3.9,5.8 -11.3,13.2 -18,18.1 -2.3,1.7 -7.8,6.2 -12.3,10 -9.4,8 -12.2,10.3 -18.5,15 -2.5,1.9 -8,5.9 -12.1,8.9 -4.1,3 -11.1,8 -15.6,11 -4.4,3 -8.7,5.9 -9.4,6.5 -2.8,2.1 -12.3,8.5 -17.3,11.7 -18.4,11.8 -36.7,21.1 -54.9,27.8 -7.8,2.9 -11.2,3.8 -19.6,5.1 -8.5,1.5 -14.9,1.9 -18.3,1.1 z M 363.2,433.2 c 0,-0.1 -0.1,-0.2 -0.2,-0.2 -0.1,0 -0.2,0.1 -0.2,0.2 0,0.1 0.1,0.2 0.2,0.2 0.1,0 0.2,-0.1 0.2,-0.2 z m -203.9,44.1 c -1.5,-0.4 -3,-0.8 -3.1,-1 -0.5,-0.6 -1.2,-6.1 -1.5,-12.7 -0.3,-6.2 -0.8,-9 -1.5,-8.3 -0.4,0.4 -1.8,6.1 -2.3,9.9 -0.3,1.7 -0.3,4.1 -0.2,5.9 l 0.3,3 -1.7,0.5 c -1,0.3 -3.2,0.5 -5.7,0.5 -3.8,0 -4.2,-0.1 -6.4,-1.1 -2.1,-1.1 -2.3,-1.2 -2.8,-3 -0.9,-3.3 -1.2,-7.3 -1.3,-13.7 0,-3.5 -0.2,-6.4 -0.4,-6.4 -0.5,0 -1.4,2.3 -2.1,5.3 -0.5,2.4 -0.8,9.1 -0.5,12.8 0.1,1.2 0,1.3 -1.5,1.6 -2.4,0.5 -5.5,-0.3 -7.4,-1.8 -1.4,-1.2 -1.6,-1.5 -2,-4 -0.8,-4.8 -0.8,-5.7 -0.9,-10.6 0,-2.7 -0.2,-4.8 -0.3,-4.8 -0.6,0 -1.9,3.6 -2.4,6.3 -0.3,1.6 -0.4,4.4 -0.2,6.9 l 0.2,4.1 -1,0.2 c -2,0.5 -4.4,-0.2 -6.2,-1.8 -2.9,-2.5 -3.2,-3.8 -3.5,-11.8 -0.6,-16.6 0.8,-31.4 3.8,-41.6 0.6,-2.1 1.4,-5.1 1.8,-6.6 0.9,-3.8 1.2,-11.8 0.6,-15 -0.4,-2.4 -2.5,-7.7 -3.1,-8.1 -0.2,-0.1 -0.3,2.4 -0.3,5.4 0,6.3 -0.5,8.5 -3,12.5 -1.9,3 -2.5,2.9 -10,-0.7 -3.3,-1.6 -8,-4.2 -10.4,-5.6 -2.4,-1.5 -5.7,-3.5 -7.2,-4.4 -3.2,-1.9 -8.4,-7 -10.9,-10.6 -1.8,-2.5 -4.3,-8.5 -5.4,-12.6 -0.3,-1.2 -0.9,-4.5 -1.4,-7.3 -0.8,-4.9 -0.8,-5.9 -0.5,-19.2 0.4,-17 0.3,-21.8 -0.4,-29.2 -0.7,-6.8 -2.8,-19.9 -4.4,-27.8 -2.7,-13.5 -3.2,-17.2 -2.7,-23.1 0.2,-2.4 0.4,-9.8 0.5,-16.4 0.1,-13.4 0.8,-20 3.1,-33.2 3.8,-21.2 12.4,-44.9 22.7,-62.2 13.7,-23.1 34.5,-44 57.8,-58.1 6,-3.6 16.9,-9.1 22.4,-11.3 6.3,-2.5 22.2,-7.9 28.1,-9.6 17.9,-5.1 36.2,-8.1 57,-9.5 7.2,-0.5 26.7,-0.5 33.9,0 35.5,2.4 67.6,10 97.5,23.3 30.2,13.4 56.9,33.9 73.6,56.5 9.1,12.3 14.1,22.8 20.4,42.9 3,9.5 5.3,21.7 6.3,33.6 0.5,5.7 0.5,22.3 0,28.5 -2.2,27.5 -9.5,53.2 -21.7,76.4 -14.1,26.8 -31.9,47 -53.6,60.8 -8.9,5.6 -21.4,11 -25.6,11 -2.2,0 -2.6,-0.5 -2.1,-2.9 0.2,-1.1 0.4,-4.1 0.4,-6.7 0,-5.6 -0.6,-7.7 -3.1,-10.5 -2.9,-3.1 -6.6,-4.2 -9.6,-2.8 -1,0.5 -4.3,3.2 -8.2,6.9 -6.3,5.9 -10.9,9.4 -14.3,10.7 -7,2.8 -22.9,5.1 -41.9,6 -7.5,0.4 -15.7,1 -16.7,1.3 -0.3,0.1 -2.4,0.3 -4.6,0.6 -4.5,0.5 -12.1,2.5 -15.4,4.1 -2.6,1.2 -5.4,3.2 -5.4,3.7 0,0.7 1.8,0.4 4.3,-0.7 2.6,-1.1 7.5,-2.5 7.8,-2.2 0.1,0.1 -0.5,1.6 -1.3,3.3 -2.1,4.3 -2.5,6.4 -2.2,11.5 0.2,3.3 0.5,5 1.4,8.1 2.6,8.3 1,15.2 -4.1,17.5 -1.4,0.6 -1.5,0.8 -2.6,3.9 -1.2,3.2 -4.9,6.3 -8.1,6.7 -1,0.1 -1.1,0 -1.8,-1.9 -0.4,-1.1 -1.3,-3.2 -2.1,-4.6 -1.4,-2.6 -4.2,-5.7 -4.7,-5.2 -0.2,0.1 0.7,3 1.9,6.4 1.2,3.4 2.2,6.6 2.2,7.1 0,1.3 -1.9,3.7 -4,5 -1,0.6 -3,1.4 -4.5,1.8 -2.4,0.6 -3.1,0.9 -5.2,2.8 -2.8,2.5 -4.4,3.2 -6.7,3.2 h -1.7 l -0.9,-3.2 c -0.9,-3.3 -4.1,-10.1 -4.7,-10.1 -0.6,0 -0.4,1 1.2,7 1.9,7.2 1.9,7.7 0.1,9.7 -2.9,3.1 -9.6,4.8 -14,3.6 l -1.4,-0.4 -0.1,-2.9 c -0.1,-3.3 -1.5,-9.1 -3,-12.2 -1.1,-2.4 -2.5,-4.4 -3,-4.4 -0.5,0 0,4.2 1.1,9.6 0.5,2.5 1.1,5.7 1.2,7 l 0.3,2.4 -2,1.7 c -4.6,4 -9.7,5 -16,3.4 l -2,-0.5 -0.2,-2.9 c -0.5,-5.7 -3.5,-16 -4.7,-16 -1,0 -1,4.4 -0.1,10.2 0.5,3 0.9,6.2 0.9,7 0,1.4 -0.1,1.5 -1.9,2.4 -2.8,1.5 -8.8,1.7 -13,0.7 z m 3.1,-84.6 c 0.5,-0.5 1.5,-1.9 2.2,-3.2 1.2,-2.4 1.3,-2.5 1.3,-7.6 0,-4.7 -0.1,-5.6 -1.2,-9.6 -2.7,-9.9 -10.3,-23.8 -17.7,-32.3 -2.9,-3.3 -4,-4.2 -6.5,-5.5 -2.2,-1.1 -3.4,-1 -5.1,0.3 -1.7,1.3 -1.7,1.4 -2.3,6.6 -0.5,4.9 -1.2,8.6 -2.9,16.1 -2.1,9.6 -3.4,19.4 -3.1,24.6 0.3,4.7 0.7,6.3 1.9,7.6 1.5,1.6 4.2,0.6 5.6,-2.1 2,-3.8 2.6,-9.2 3,-25.3 0.2,-10.6 0.3,-12 0.8,-11.6 0.9,0.7 5.7,10.3 6.6,13.3 2.4,7.5 6.4,18.6 7.8,21.4 1.2,2.4 2.2,3.7 4.2,5.6 2.8,2.8 3.8,3.1 5.4,1.7 z M 244,348.4 c 6.5,-0.8 13.2,-2.6 18.1,-5 2.5,-1.2 9.7,-7 12.1,-9.6 4.5,-5 6.4,-8.4 9,-16.2 2.3,-6.9 2.9,-10.6 2.9,-18.6 0,-10.1 -1.3,-16 -5.5,-24 -5.6,-10.7 -12.6,-18.8 -21.1,-24.3 -5.8,-3.8 -15.2,-8.1 -21.6,-9.9 -4.6,-1.3 -13,-2.8 -17.2,-3 -9.5,-0.6 -19.6,2.3 -26.1,7.5 -3.3,2.6 -7.3,8.9 -9.3,14.7 -1.3,3.7 -1.5,4.5 -1.6,8.7 -0.2,7.6 0.6,20 1.9,28.4 0.6,4.2 1.4,9.6 1.8,12 0.7,5.4 1.3,7.8 3.1,13.2 1.7,5.2 3,7.5 5.8,11 4.6,5.7 10.4,9.4 19.9,12.6 8,2.7 11.6,3.3 19.1,3.1 2.9,-0.1 6.9,-0.4 8.7,-0.6 z M 103.6,335.9 c 9.2,-3.4 14.1,-7.6 18.2,-15.3 4.9,-9.4 7.9,-31 6.1,-43.5 -1.5,-10.3 -5.3,-19.9 -10.5,-26.5 -2.4,-3 -9.3,-9 -12,-10.3 -2.4,-1.2 -7.1,-2.4 -10.5,-2.7 -2.5,-0.3 -8,0.7 -11.6,2 -1.2,0.4 -3.3,1.6 -4.6,2.5 -3.5,2.6 -5.7,5.4 -7.7,9.9 l -1.7,3.9 0.1,29.9 c 0.1,21.8 0.2,30.4 0.6,31.9 0.7,3 4.9,10.9 7,13.1 1.2,1.2 3,2.5 5.6,3.9 4.3,2.3 7.1,2.9 12.7,3 3.3,0.1 3.7,0 8.3,-1.8 z M 64.4,320.2 c -0.1,-0.1 -0.3,0 -0.3,0.2 0,0.3 0.1,0.4 0.3,0.2 0.2,-0.1 0.2,-0.3 0,-0.4 z m -0.6,-14.4 c 0,-0.1 -0.1,-0.2 -0.2,-0.2 -0.1,0 -0.2,0.1 -0.2,0.2 0,0.1 0.1,0.2 0.2,0.2 0.1,0 0.2,-0.1 0.2,-0.2 z"
   style="display:inline;opacity:1;fill:#2a494b;fill-opacity:1"
   sodipodi:nodetypes="ccccccccssccscccccccsccccccccscccccccccccccccccccccccccccccscsccccccccccssccssccccccscccccscccssccccccsccccccssssscccsccccscccsccccccsccccccccccsccccccccccccccccccccccccccscsccccccccscscccccccccsscccsccsccccccscccccccscsccccscccsccccccccscccccsscccccccccccccccccccccccccccccccsccsssss" />
	</g>
        <path
   id="path869"
   class="st4"
   d="m 165.78458,294.46058 c -0.13133,-0.32829 -0.85354,-4.13644 -1.64144,-8.46983 -0.78789,-4.33341 -1.96973,-11.1618 -2.75762,-15.23258 -1.64145,-8.99509 -8.01023,-44.1876 -9.84864,-54.43019 -0.45961,-2.495 -0.9192,-4.6617 -1.05053,-4.79301 -0.13133,-0.13133 -1.57579,-0.52527 -3.15156,-0.98487 -10.04563,-2.56065 -26.5257,-7.09103 -27.70753,-7.61629 -0.59092,-0.26262 -0.7879,-0.59092 -0.7879,-1.05051 0,-0.32829 -0.0656,-0.7879 -0.19697,-0.91922 -0.32829,-0.45959 0.13133,-0.85355 2.10103,-1.7071 2.495,-1.11618 14.51036,-5.71221 21.99534,-8.53549 3.28287,-1.18184 6.10615,-2.29802 6.30312,-2.495 0.19697,-0.19696 0.4596,-2.36367 0.65658,-6.36878 0.19697,-3.34855 0.59092,-10.11128 0.85355,-15.0356 0.26263,-4.92434 0.85355,-14.37903 1.24749,-21.01046 0.39395,-6.63142 0.98487,-16.87401 1.37881,-22.84887 0.39395,-5.97484 0.72224,-12.5406 0.85355,-14.7073 0.13133,-2.16671 0.26263,-4.13643 0.45961,-4.39907 0.26263,-0.52526 1.37881,-0.59091 1.77275,-0.13133 0.13133,0.19698 0.85355,3.54552 1.57579,7.55063 0.72223,3.93947 2.10104,11.4901 3.02026,16.80836 0.98485,5.25262 2.36367,13.00022 3.15156,17.20231 0.78788,4.20209 1.44447,8.14155 1.57578,8.79812 0.13133,0.65659 0.65657,2.8233 1.2475,4.85868 2.29802,8.60115 5.44958,20.81347 6.56576,25.80346 0.19698,0.9192 0.4596,1.77275 0.59092,1.90407 0.13133,0.13132 1.7071,0.4596 3.47986,0.85355 1.77276,0.39394 5.97484,1.18183 9.25773,1.90406 32.96015,6.69708 30.59646,6.17182 31.18738,6.82839 0.26263,0.32829 0.26263,0.45961 -0.0656,0.65659 -0.32828,0.19696 -0.32828,0.26263 -0.0656,0.39394 0.59092,0.19698 0.39395,0.85355 -0.39395,1.24749 -1.51012,0.72224 -17.46493,5.38394 -33.81369,9.71734 -4.13644,1.11618 -7.48498,2.03539 -7.55063,2.10104 -0.13133,0.13133 -0.52526,4.13644 -0.98486,9.32339 -0.45961,5.51525 -0.59093,6.82841 -0.9192,9.97997 -0.39396,3.87381 -0.52528,5.05563 -0.7879,7.87892 -0.52526,5.12128 -2.49499,22.38926 -3.02026,26.72266 -0.13133,1.05052 -0.39393,2.88893 -0.52526,4.07077 -0.13133,1.18183 -0.32828,2.88893 -0.39394,3.8738 -0.19698,4.79301 -1.05053,18.71243 -1.18185,20.55085 l -0.19696,2.10104 -0.85355,0.0656 c -0.9192,0.13133 -1.18185,0 -1.37881,-0.45961 z m 35.65211,-6.69707 c 0,-0.0656 -0.91921,-4.98999 -2.03538,-10.96483 -1.11618,-5.97486 -2.36369,-12.54062 -2.75763,-14.70732 -0.39394,-2.1667 -0.72224,-3.93945 -0.7879,-3.93945 0,0 -1.96972,-0.52527 -4.26774,-1.11619 -6.36879,-1.64144 -7.41931,-1.96973 -7.48497,-2.42934 -0.0656,-0.52526 0.0656,-0.59091 6.23748,-2.88893 2.69196,-0.98487 4.92432,-1.83842 4.92432,-1.90407 0.0656,-0.0656 0.59091,-7.81326 1.37881,-21.92965 0.39394,-6.95972 0.52526,-8.20721 0.91921,-8.14156 0.26263,0.0656 0.4596,0.52527 0.59091,1.11619 0.13133,0.59092 0.85355,4.6617 1.7071,9.06075 1.24751,6.63142 4.13644,18.90941 4.59605,19.30335 0.0656,0.0656 3.61117,0.78789 7.94457,1.64144 4.53038,0.91921 7.94457,1.7071 8.07588,1.90406 0.13133,0.197 0.0656,0.45961 -0.19696,0.65659 -0.19697,0.19697 -3.54552,1.11618 -7.41931,2.16669 -3.8738,1.05053 -7.15669,1.96975 -7.41932,2.10106 -0.26264,0.13133 -0.4596,0.85355 -0.59092,2.1667 -0.59092,5.90919 -0.85355,8.6668 -1.31316,12.54061 -0.65657,5.31827 -0.98486,8.9951 -1.24749,12.67193 -0.13133,2.16671 -0.26263,2.82328 -0.52526,2.82328 -0.19698,0 -0.32829,-0.0656 -0.32829,-0.13133 z m 0.39394,-107.87553 c -0.0656,-0.13133 -0.4596,-1.37882 -0.78788,-2.82328 -0.39395,-1.44447 -1.51014,-5.84354 -2.56065,-9.783 -1.05052,-3.93946 -2.10105,-8.14155 -2.36368,-9.32338 l -0.4596,-2.10105 -4.92433,-1.11617 c -6.36878,-1.44447 -6.89405,-1.57579 -7.09102,-2.03539 -0.13133,-0.39395 0.0656,-0.4596 5.51524,-1.83842 1.57578,-0.39394 3.61117,-0.9192 4.46473,-1.18184 l 1.64143,-0.45959 0.45961,-4.6617 c 0.26263,-2.56065 0.65657,-6.3688 0.9192,-8.33853 0.26263,-2.03538 0.59092,-5.12129 0.7879,-6.89405 0.32828,-3.02025 0.65657,-4.13644 1.11617,-3.47985 0.0656,0.13133 0.39395,1.64143 0.72225,3.28289 0.26261,1.64143 0.65657,3.47985 0.78787,4.00511 0.13133,0.59092 0.45961,2.1667 0.72225,3.47985 0.59091,3.28288 3.21722,11.81838 3.74248,12.08102 0.45961,0.26263 6.8284,0.98485 10.7022,1.18183 4.46473,0.26263 5.2526,0.52527 3.93946,1.18184 -0.72224,0.39394 -9.783,3.21722 -12.08101,3.80813 -1.05053,0.26264 -1.96973,0.52527 -2.10104,0.65659 -0.13133,0.0656 -0.65658,4.07077 -1.18185,8.79813 -0.9192,7.68194 -1.11618,10.8335 -1.18183,14.77296 -0.13132,0.91921 -0.39395,1.31316 -0.7879,0.7879 z"
   style="stroke-width:0.656576"
   sodipodi:nodetypes="ssccscsscccscssssccccssccssccscccsccccsccccssssscccccccscccscsssccssccscccccccccccccccccccccc" /><path
   fill="#94c4c7"
   d="m 180.6753,232.04983 64.08558,252.79339 c 2.10854,8.31737 8.76752,13.82088 14.83614,12.38151 3.15969,-0.74943 5.75242,-3.31579 7.02932,-7.08781 l 25.09462,-74.25128 49.2396,72.37633 c 6.6929,9.83192 17.42855,11.91116 23.98746,4.64581 6.55897,-7.26532 6.45047,-21.11626 -0.2424,-30.94819 l -48.08811,-70.7703 59.23174,-14.04871 c 6.11877,-1.45129 9.373,-9.37828 7.26444,-17.69566 -1.08882,-4.29505 -3.47997,-8.06436 -6.56308,-10.36864 L 197.04472,215.66385 c -2.81337,-2.07917 -5.88462,-2.8685 -8.74339,-2.19044 -6.4197,1.52265 -9.83826,9.85 -7.62603,18.57642 z"
   id="path1"
   style="opacity:1;stroke:#040404;stroke-width:8.6076;stroke-linejoin:round;stroke-dasharray:none;stroke-opacity:1"
   sodipodi:nodetypes="ssscccsccssccss" />
<path
   d="m 201.24643,291.74375 c 0,-0.0721 -0.86975,-5.47635 -1.92587,-12.03354 -1.05612,-6.5572 -2.23649,-13.76289 -2.60924,-16.14078 -0.37274,-2.37789 -0.68336,-4.32342 -0.7455,-4.32342 0,0 -1.86373,-0.57647 -4.0381,-1.22498 -6.0261,-1.80143 -7.02009,-2.16172 -7.08222,-2.66611 -0.0622,-0.57646 0.0622,-0.64851 5.90185,-3.17051 2.54712,-1.08085 4.65936,-2.0176 4.65936,-2.08965 0.062,-0.0721 0.55911,-8.5748 1.30461,-24.06707 0.37275,-7.63805 0.497,-9.00714 0.86975,-8.93509 0.2485,0.0721 0.43487,0.57647 0.55913,1.22499 0.12421,0.64851 0.80761,5.11604 1.61523,9.94387 1.18038,7.27777 3.91387,20.75245 4.34874,21.18477 0.062,0.072 3.41685,0.8647 7.51709,1.80144 4.2866,1.0088 7.51709,1.87348 7.64133,2.08965 0.12421,0.21617 0.0622,0.5044 -0.18636,0.72057 -0.18638,0.21617 -3.35474,1.22498 -7.0201,2.37788 -3.66536,1.15293 -6.77159,2.16172 -7.02009,2.30584 -0.24851,0.14411 -0.43488,0.93674 -0.55912,2.37788 -0.55913,6.48514 -0.80762,9.51153 -1.2425,13.76291 -0.62125,5.83661 -0.93188,9.87181 -1.18037,13.907 -0.12422,2.37789 -0.2485,3.09846 -0.49699,3.09846 -0.18639,0 -0.31063,-0.072 -0.31063,-0.14411 z"
   style="fill:#d95157;stroke-width:0.669069"
   id="path1-8" /></g>
</svg>
